<svg width="1280" height="720" xmlns="http://www.w3.org/2000/svg" xmlns:xlink="http://www.w3.org/1999/xlink" overflow="hidden"><g><rect x="0" y="0" width="1280" height="719.812" fill="#F2F2F2"/><rect x="0" y="0" width="1280" height="719.812" fill="#D9D9D9"/><path d="M814 19.8413C814 14.4046 818.408 9.99738 823.846 9.99738L1253.15 9.99738C1258.59 9.99738 1263 14.4046 1263 19.8413L1263 691.973C1263 697.41 1258.59 701.817 1253.15 701.817L823.846 701.817C818.408 701.817 814 697.41 814 691.973Z" fill="#FFFFFF" fill-rule="evenodd"/><path d="M241 18.5021C241 13.8051 244.809 9.99738 249.507 9.99738L788.493 9.99738C793.191 9.99738 797 13.8051 797 18.5021L797 693.312C797 698.01 793.191 701.817 788.493 701.817L249.507 701.817C244.809 701.817 241 698.01 241 693.312Z" fill="#FFFFFF" fill-rule="evenodd"/><path d="M17 14.95C17 12.2147 19.2179 9.99738 21.9539 9.99738L219.046 9.99738C221.782 9.99738 224 12.2147 224 14.95L224 696.865C224 699.6 221.782 701.817 219.046 701.817L21.9539 701.817C19.2179 701.817 17 699.6 17 696.865Z" fill="#FFFFFF" fill-rule="evenodd"/></g></svg>