<svg width="1280" height="720" xmlns="http://www.w3.org/2000/svg" xmlns:xlink="http://www.w3.org/1999/xlink" overflow="hidden"><g><rect x="0" y="0" width="1280" height="719.812" fill="#4D4D4D"/><rect x="0" y="0" width="1280" height="719.812" fill="#D9D9D9"/><path d="M241 17.285C241 13.2602 244.264 9.99738 248.289 9.99738L1255.71 9.99738C1259.74 9.99738 1263 13.2602 1263 17.285L1263 91.6865C1263 95.7114 1259.74 98.9742 1255.71 98.9742L248.289 98.9742C244.264 98.9742 241 95.7114 241 91.6865Z" fill="#4D4D4D" fill-rule="evenodd"/><path d="M17 14.95C17 12.2147 19.2179 9.99738 21.9539 9.99738L219.046 9.99738C221.782 9.99738 224 12.2147 224 14.95L224 696.865C224 699.6 221.782 701.817 219.046 701.817L21.9539 701.817C19.2179 701.817 17 699.6 17 696.865Z" fill="#FFFFFF" fill-rule="evenodd"/><text fill="#FFFFFF" font-family="Calibri,Calibri_MSFontService,sans-serif" font-weight="400" font-size="24" transform="matrix(1 0 0 0.99974 74.0966 364)">#D9D9D9</text><path d="M241 111.462C241 107.878 243.906 104.973 247.491 104.973L569.509 104.973C573.094 104.973 576 107.878 576 111.462L576 394.406C576 397.99 573.094 400.896 569.509 400.896L247.491 400.896C243.906 400.896 241 397.99 241 394.406Z" fill="#FFFFFF" fill-rule="evenodd"/><path d="M241 413.383C241 409.799 243.906 406.894 247.491 406.894L569.509 406.894C573.094 406.894 576 409.799 576 413.383L576 696.327C576 699.911 573.094 702.817 569.509 702.817L247.491 702.817C243.906 702.817 241 699.911 241 696.327Z" fill="#FFFFFF" fill-rule="evenodd"/><path d="M585 111.462C585 107.878 587.906 104.973 591.491 104.973L913.509 104.973C917.094 104.973 920 107.878 920 111.462L920 394.406C920 397.99 917.094 400.896 913.509 400.896L591.491 400.896C587.906 400.896 585 397.99 585 394.406Z" fill="#FFFFFF" fill-rule="evenodd"/><path d="M585 413.361C585 409.79 587.896 406.894 591.469 406.894L913.531 406.894C917.104 406.894 920 409.79 920 413.361L920 695.35C920 698.922 917.104 701.817 913.531 701.817L591.469 701.817C587.896 701.817 585 698.922 585 695.35Z" fill="#FFFFFF" fill-rule="evenodd"/><path d="M928 111.462C928 107.878 930.906 104.973 934.491 104.973L1256.51 104.973C1260.09 104.973 1263 107.878 1263 111.462L1263 394.406C1263 397.99 1260.09 400.896 1256.51 400.896L934.491 400.896C930.906 400.896 928 397.99 928 394.406Z" fill="#FFFFFF" fill-rule="evenodd"/><path d="M928 413.361C928 409.79 930.896 406.894 934.469 406.894L1256.53 406.894C1260.1 406.894 1263 409.79 1263 413.361L1263 695.35C1263 698.922 1260.1 701.817 1256.53 701.817L934.469 701.817C930.896 701.817 928 698.922 928 695.35Z" fill="#FFFFFF" fill-rule="evenodd"/></g></svg>