<svg width="1280" height="720" xmlns="http://www.w3.org/2000/svg" xmlns:xlink="http://www.w3.org/1999/xlink" overflow="hidden"><g><rect x="0" y="0" width="1280" height="719.812" fill="#F2F2F2"/><rect x="0" y="0" width="1280" height="719.812" fill="#D9D9D9"/><path d="M241 15.8033C241 12.5968 243.6 9.99738 246.807 9.99738L1257.19 9.99738C1260.4 9.99738 1263 12.5968 1263 15.8033L1263 93.1682C1263 96.3747 1260.4 98.9742 1257.19 98.9742L246.807 98.9742C243.6 98.9742 241 96.3747 241 93.1682Z" fill="#4D4D4D" fill-rule="evenodd"/><path d="M17 14.95C17 12.2147 19.2179 9.99738 21.9539 9.99738L219.046 9.99738C221.782 9.99738 224 12.2147 224 14.95L224 696.865C224 699.6 221.782 701.817 219.046 701.817L21.9539 701.817C19.2179 701.817 17 699.6 17 696.865Z" fill="#FFFFFF" fill-rule="evenodd"/><path d="M241 111.462C241 107.878 243.906 104.973 247.491 104.973L742.509 104.973C746.094 104.973 749 107.878 749 111.462L749 394.406C749 397.99 746.094 400.896 742.509 400.896L247.491 400.896C243.906 400.896 241 397.99 241 394.406Z" fill="#FFFFFF" fill-rule="evenodd"/><path d="M241 413.383C241 409.799 243.906 406.894 247.491 406.894L569.509 406.894C573.094 406.894 576 409.799 576 413.383L576 696.327C576 699.911 573.094 702.817 569.509 702.817L247.491 702.817C243.906 702.817 241 699.911 241 696.327Z" fill="#FFFFFF" fill-rule="evenodd"/><path d="M585 413.361C585 409.79 587.896 406.894 591.469 406.894L913.531 406.894C917.104 406.894 920 409.79 920 413.361L920 695.35C920 698.922 917.104 701.817 913.531 701.817L591.469 701.817C587.896 701.817 585 698.922 585 695.35Z" fill="#FFFFFF" fill-rule="evenodd"/><path d="M755 111.462C755 107.878 757.906 104.973 761.491 104.973L1256.51 104.973C1260.09 104.973 1263 107.878 1263 111.462L1263 394.406C1263 397.99 1260.09 400.896 1256.51 400.896L761.491 400.896C757.906 400.896 755 397.99 755 394.406Z" fill="#FFFFFF" fill-rule="evenodd"/><path d="M928 413.361C928 409.79 930.896 406.894 934.469 406.894L1256.53 406.894C1260.1 406.894 1263 409.79 1263 413.361L1263 695.35C1263 698.922 1260.1 701.817 1256.53 701.817L934.469 701.817C930.896 701.817 928 698.922 928 695.35Z" fill="#FFFFFF" fill-rule="evenodd"/></g></svg>