<svg width="1280" height="720" xmlns="http://www.w3.org/2000/svg" xmlns:xlink="http://www.w3.org/1999/xlink" overflow="hidden"><g><rect x="0" y="0" width="1280" height="719.812" fill="#F2F2F2"/><rect x="0" y="0" width="1280" height="719.812" fill="#D9D9D9"/><path d="M241 20.5823C241 14.7364 245.74 9.99738 251.588 9.99738L1252.41 9.99738C1258.26 9.99738 1263 14.7364 1263 20.5823L1263 691.232C1263 697.078 1258.26 701.817 1252.41 701.817L251.588 701.817C245.74 701.817 241 697.078 241 691.232Z" fill="#FFFFFF" fill-rule="evenodd"/><text fill="#FFFFFF" font-family="Calibri,Calibri_MSFontService,sans-serif" font-weight="400" font-size="24" transform="matrix(1 0 0 0.99974 705.646 364)">#D9D9D9</text><path d="M17 14.95C17 12.2147 19.2179 9.99738 21.9539 9.99738L219.046 9.99738C221.782 9.99738 224 12.2147 224 14.95L224 696.865C224 699.6 221.782 701.817 219.046 701.817L21.9539 701.817C19.2179 701.817 17 699.6 17 696.865Z" fill="#FFFFFF" fill-rule="evenodd"/><text fill="#FFFFFF" font-family="Calibri,Calibri_MSFontService,sans-serif" font-weight="400" font-size="24" transform="matrix(1 0 0 0.99974 74.0966 364)">#D9D9D9</text><path d="M241.5 16.8976C241.5 13.3628 244.366 10.4972 247.902 10.4972L1257.1 10.4972C1260.63 10.4972 1263.5 13.3628 1263.5 16.8976L1263.5 69.0799C1263.5 72.6147 1260.63 75.4803 1257.1 75.4803L247.902 75.4803C244.366 75.4803 241.5 72.6147 241.5 69.0799Z" stroke="#172C51" stroke-width="1.33368" stroke-miterlimit="8" fill="#4D4D4D" fill-rule="evenodd"/></g></svg>