<svg width="1280" height="720" xmlns="http://www.w3.org/2000/svg" xmlns:xlink="http://www.w3.org/1999/xlink" overflow="hidden"><g><rect x="0" y="0" width="1280" height="719.812" fill="#F2F2F2"/><rect x="0" y="0" width="1280" height="719.812" fill="#D9D9D9"/><path d="M241 110.484C241 107.992 243.021 105.972 245.513 105.972L1258.49 105.972C1260.98 105.972 1263 107.992 1263 110.484L1263 396.384C1263 398.875 1260.98 400.896 1258.49 400.896L245.513 400.896C243.021 400.896 241 398.875 241 396.384Z" fill="#FFFFFF" fill-rule="evenodd"/><text fill="#FFFFFF" font-family="Calibri,Calibri_MSFontService,sans-serif" font-weight="400" font-size="24" transform="matrix(1 0 0 0.99974 705.558 261)">#D9D9D9</text><path d="M17 14.95C17 12.2147 19.2179 9.99738 21.9539 9.99738L219.046 9.99738C221.782 9.99738 224 12.2147 224 14.95L224 696.865C224 699.6 221.782 701.817 219.046 701.817L21.9539 701.817C19.2179 701.817 17 699.6 17 696.865Z" fill="#FFFFFF" fill-rule="evenodd"/><text fill="#FFFFFF" font-family="Calibri,Calibri_MSFontService,sans-serif" font-weight="400" font-size="24" transform="matrix(1 0 0 0.99974 74.0966 364)">#D9D9D9</text><path d="M241.5 16.4004C241.5 13.1402 244.144 10.4972 247.405 10.4972L1257.6 10.4972C1260.86 10.4972 1263.5 13.1402 1263.5 16.4004L1263.5 93.5709C1263.5 96.8312 1260.86 99.4741 1257.6 99.4741L247.405 99.4741C244.144 99.4741 241.5 96.8312 241.5 93.5709Z" stroke="#172C51" stroke-width="1.33368" stroke-miterlimit="8" fill="#4D4D4D" fill-rule="evenodd"/><path d="M241 412.391C241 409.907 243.014 407.894 245.499 407.894L1258.5 407.894C1260.99 407.894 1263 409.907 1263 412.391L1263 697.32C1263 699.804 1260.99 701.817 1258.5 701.817L245.499 701.817C243.014 701.817 241 699.804 241 697.32Z" fill="#FFFFFF" fill-rule="evenodd"/><text fill="#FFFFFF" font-family="Calibri,Calibri_MSFontService,sans-serif" font-weight="400" font-size="24" transform="matrix(1 0 0 0.99974 705.558 562)">#D9D9D9</text></g></svg>